<?xml version="1.0" encoding="UTF-8"?>
<!-- Generator: https://ezgif.com/png-to-svg -->
<svg version="1.1" xmlns="http://www.w3.org/2000/svg" width="201" height="202">
<path d="M0 0 C20.93 17.45 34.78 41.4 37.39 68.72 C39.5 98.27 31.8 124.45 12.62 147.16 C-3.27 165.34 -24.63 177.19 -48.61 180.72 C-64.13 181.61 -79.82 181.93 -94.61 176.72 C-95.32 176.47 -96.03 176.22 -96.76 175.97 C-111.11 170.84 -122.59 163.27 -133.61 152.72 C-134.37 152.03 -135.13 151.35 -135.91 150.64 C-151.32 136.24 -162.61 112.64 -163.79 91.55 C-164.38 58.91 -158.28 32.47 -135.18 7.9 C-123.58 -4.08 -110.35 -11.93 -94.61 -17.28 C-93.97 -17.51 -93.33 -17.73 -92.67 -17.96 C-61.43 -28.45 -25.38 -20.22 0 0 Z " fill="#F8F8FB" transform="translate(163.609375,21.28173828125)"/>
<path d="M0 0 C14.32 10.92 25.21 26.26 27.75 44.41 C27.83 46.43 27.86 48.45 27.85 50.47 C27.85 51.58 27.84 52.69 27.84 53.83 C27.83 54.97 27.82 56.11 27.82 57.29 C27.81 58.45 27.81 59.62 27.8 60.82 C27.79 63.69 27.77 66.55 27.75 69.41 C30.72 69.41 33.69 69.41 36.75 69.41 C36.75 69.74 36.75 70.07 36.75 70.41 C31.8 70.41 26.85 70.41 21.75 70.41 C21.42 69.42 21.09 68.43 20.75 67.41 C8.54 67.08 -3.67 66.75 -16.25 66.41 C-16.25 67.07 -16.25 67.73 -16.25 68.41 C-14.93 68.41 -13.61 68.41 -12.25 68.41 C-12.58 71.71 -12.91 75.01 -13.25 78.41 C-14.24 78.41 -15.23 78.41 -16.25 78.41 C-16.25 79.07 -16.25 79.73 -16.25 80.41 C-15.26 80.41 -14.27 80.41 -13.25 80.41 C-13.25 81.07 -13.25 81.73 -13.25 82.41 C-14.24 82.41 -15.23 82.41 -16.25 82.41 C-16.25 83.07 -16.25 83.73 -16.25 84.41 C-15.26 84.41 -14.27 84.41 -13.25 84.41 C-13.25 85.07 -13.25 85.73 -13.25 86.41 C-14.24 86.41 -15.23 86.41 -16.25 86.41 C-16.25 87.07 -16.25 87.73 -16.25 88.41 C-11.3 88.08 -6.35 87.75 -1.25 87.41 C-1.25 86.42 -1.25 85.43 -1.25 84.41 C0.73 84.41 2.71 84.41 4.75 84.41 C4.75 85.4 4.75 86.39 4.75 87.41 C15.64 87.41 26.53 87.41 37.75 87.41 C37.75 88.07 37.75 88.73 37.75 89.41 C36.52 89.38 35.29 89.35 34.03 89.32 C25.26 88.95 25.26 88.95 17.5 92.17 C16.06 94.52 14.92 96.92 13.75 99.41 C4.26 112.52 -11.54 121.71 -27.34 124.83 C-47.68 127.01 -65.85 123.25 -82.31 110.85 C-83.64 109.73 -84.96 108.58 -86.25 107.41 C-86.87 106.86 -87.49 106.31 -88.13 105.74 C-90.72 103.3 -92.85 101.28 -94.34 98.01 C-95.73 95.04 -96.63 93.44 -99.25 91.41 C-105.49 89.96 -111.88 90.37 -118.25 90.41 C-118.25 83.48 -118.25 76.55 -118.25 69.41 C-114.62 69.41 -110.99 69.41 -107.25 69.41 C-107.58 68.09 -107.91 66.77 -108.25 65.41 C-109.51 45.42 -105.58 27.05 -92.32 11.51 C-68.64 -14.69 -29.38 -21.31 0 0 Z " fill="#43479C" transform="translate(140.2470703125,44.58544921875)"/>
<path d="M0 0 C13.14 11.3 21.15 26.65 23.25 43.81 C24.15 58.9 24.15 58.9 22.25 64.81 C21.59 64.81 20.93 64.81 20.25 64.81 C19.92 63.82 19.59 62.83 19.25 61.81 C4.4 61.81 -10.45 61.81 -25.75 61.81 C-25.75 49.27 -25.75 36.73 -25.75 23.81 C-27.4 23.81 -29.05 23.81 -30.75 23.81 C-30.75 22.16 -30.75 20.51 -30.75 18.81 C-31.41 18.81 -32.07 18.81 -32.75 18.81 C-32.75 17.82 -32.75 16.83 -32.75 15.81 C-35.72 15.81 -38.69 15.81 -41.75 15.81 C-42.25 12.35 -42.25 12.35 -42.75 8.81 C-43.41 8.81 -44.07 8.81 -44.75 8.81 C-44.73 9.78 -44.71 10.75 -44.69 11.75 C-44.75 14.81 -44.75 14.81 -45.75 15.81 C-48.42 15.95 -51.07 15.85 -53.75 15.81 C-53.75 16.8 -53.75 17.79 -53.75 18.81 C-54.74 18.81 -55.73 18.81 -56.75 18.81 C-56.75 20.46 -56.75 22.11 -56.75 23.81 C-58.4 23.81 -60.05 23.81 -61.75 23.81 C-61.75 36.35 -61.75 48.89 -61.75 61.81 C-76.6 61.48 -91.45 61.15 -106.75 60.81 C-106.75 62.13 -106.75 63.45 -106.75 64.81 C-107.74 64.81 -108.73 64.81 -109.75 64.81 C-110.63 42.19 -108.77 24.34 -93.38 6.5 C-67.76 -20.45 -29.22 -22.4 0 0 Z " fill="#7DCBF1" transform="translate(143.75,49.1875)"/>
<path d="M0 0 C0.64 0.44 1.29 0.87 1.95 1.32 C17.42 11.51 32.33 16.94 51 16 C52.11 15.99 52.11 15.99 53.25 15.98 C64.39 15.43 75.76 9.72 84.77 3.52 C86.79 2.14 88.79 1.04 91 0 C91.99 0.99 91.99 0.99 93 2 C92.62 4.13 92.62 4.13 92 6 C91.01 5.67 90.02 5.34 89 5 C89 5.66 89 6.32 89 7 C89.66 7 90.32 7 91 7 C91.12 7.8 91.25 8.61 91.38 9.44 C91.68 10.71 91.68 10.71 92 12 C92.99 12.5 92.99 12.5 94 13 C94 11.35 94 9.7 94 8 C95.65 8 97.3 8 99 8 C98.34 9.65 97.68 11.3 97 13 C96.34 13 95.68 13 95 13 C94.67 14.98 94.34 16.96 94 19 C96.61 17.69 96.68 16.64 97.62 13.94 C97.89 13.2 98.15 12.47 98.41 11.71 C98.61 11.15 98.8 10.58 99 10 C99.33 10 99.66 10 100 10 C100.25 15.62 100.25 15.62 98 19 C98.66 19 99.32 19 100 19 C100.5 17.51 100.5 17.51 101 16 C101.66 16 102.32 16 103 16 C103 16.99 103 17.98 103 19 C103.66 19.33 104.32 19.66 105 20 C103.66 24.02 101.06 25.23 97.62 27.38 C96.99 27.77 96.35 28.17 95.69 28.59 C82.48 36.73 66.67 42.62 51 43 C49.26 43.09 49.26 43.09 47.48 43.19 C22.51 43.97 1.18 34.49 -17.98 18.92 C-18.65 18.29 -19.31 17.65 -20 17 C-20 16.34 -20 15.68 -20 15 C-16.53 14.5 -16.53 14.5 -13 14 C-12.01 15.49 -12.01 15.49 -11 17 C-10.01 16.67 -9.02 16.34 -8 16 C-8.66 15.67 -9.32 15.34 -10 15 C-10 14.34 -10 13.68 -10 13 C-9.34 13 -8.68 13 -8 13 C-8 12.34 -8 11.68 -8 11 C-8.99 10.67 -9.98 10.34 -11 10 C-9.35 9.67 -7.7 9.34 -6 9 C-6 7.35 -6 5.7 -6 4 C-5.22 4.21 -4.43 4.41 -3.62 4.62 C-2.76 4.75 -1.89 4.87 -1 5 C-0.34 4.34 0.32 3.68 1 3 C0.67 2.01 0.34 1.02 0 0 Z " fill="#F8F8FB" transform="translate(55,153)"/>
<path d="M0 0 C36.3 0 72.6 0 110 0 C107.44 10.24 97.79 17.78 89.16 23.13 C73.65 32.3 56.23 34.72 38.56 30.94 C26.98 27.39 17.43 21.72 9 13 C8.22 12.2 7.45 11.39 6.64 10.57 C1.17 4.66 1.17 4.66 0 0 Z " fill="#027C44" transform="translate(45,134)"/>
<path d="M0 0 C20.93 17.45 34.78 41.4 37.39 68.72 C39.5 98.27 31.8 124.45 12.62 147.16 C-3.27 165.34 -24.63 177.19 -48.61 180.72 C-64.13 181.61 -79.82 181.93 -94.61 176.72 C-95.32 176.47 -96.03 176.22 -96.76 175.97 C-111.11 170.84 -122.59 163.27 -133.61 152.72 C-134.37 152.03 -135.13 151.35 -135.91 150.64 C-151.32 136.24 -162.61 112.64 -163.79 91.55 C-164.38 58.91 -158.28 32.47 -135.18 7.9 C-123.58 -4.08 -110.35 -11.93 -94.61 -17.28 C-93.97 -17.51 -93.33 -17.73 -92.67 -17.96 C-61.43 -28.45 -25.38 -20.22 0 0 Z M-125.61 3.72 C-126.41 4.37 -127.2 5.03 -128.02 5.7 C-145.63 20.66 -157.69 42.78 -160.61 65.72 C-160.87 70.2 -160.89 74.67 -160.86 79.16 C-160.87 80.29 -160.87 81.43 -160.88 82.6 C-160.86 93.55 -159.54 103.63 -155.36 113.78 C-155.05 114.55 -154.73 115.33 -154.41 116.12 C-143.47 142.71 -124.36 160.66 -98.19 172.25 C-74.89 181.83 -47.4 179.62 -24.44 170.38 C0.42 159.89 18.25 139.25 28.39 114.72 C37.56 91.55 36.92 64.67 27.39 41.72 C22.72 31.33 17.17 22.1 9.39 13.72 C8.57 12.81 7.75 11.9 6.91 10.96 C-6.27 -3.02 -22.21 -11.2 -40.61 -16.28 C-41.8 -16.64 -42.99 -17.01 -44.21 -17.38 C-49.84 -18.76 -55.53 -18.58 -61.3 -18.53 C-62.46 -18.52 -63.62 -18.52 -64.82 -18.51 C-87.39 -18.23 -108.38 -11.23 -125.61 3.72 Z " fill="#25288C" transform="translate(163.609375,21.28173828125)"/>
<path d="M0 0 C11.22 0 22.44 0 34 0 C34 14.19 34 28.38 34 43 C32.68 43 31.36 43 30 43 C30 43.66 30 44.32 30 45 C31.32 45.33 32.64 45.66 34 46 C32.68 46 31.36 46 30 46 C30 46.99 30 47.98 30 49 C31.32 49 32.64 49 34 49 C34 49.66 34 50.32 34 51 C30.7 51 27.4 51 24 51 C24 51.66 24 52.32 24 53 C27.3 53 30.6 53 34 53 C34 53.66 34 54.32 34 55 C30.7 55 27.4 55 24 55 C24 55.66 24 56.32 24 57 C27.3 57 30.6 57 34 57 C34 57.66 34 58.32 34 59 C32.35 59.03 30.71 59.05 29.06 59.06 C28.15 59.07 27.23 59.09 26.29 59.1 C24 59 24 59 23 58 C22.96 56 22.96 54 23 52 C22.34 52 21.68 52 21 52 C21 53.98 21 55.96 21 58 C20.67 58 20.34 58 20 58 C20 56.02 20 54.04 20 52 C18.35 52 16.7 52 15 52 C15 53.98 15 55.96 15 58 C14.34 58 13.68 58 13 58 C13 56.02 13 54.04 13 52 C12.34 52 11.68 52 11 52 C11.02 52.97 11.04 53.94 11.06 54.94 C11 58 11 58 10 59 C8.31 59.07 6.62 59.08 4.94 59.06 C4.02 59.05 3.1 59.04 2.15 59.04 C1.44 59.02 0.73 59.01 0 59 C0 58.34 0 57.68 0 57 C3.3 57 6.6 57 10 57 C10 56.34 10 55.68 10 55 C6.7 54.67 3.4 54.34 0 54 C0 53.67 0 53.34 0 53 C3.3 53 6.6 53 10 53 C10 52.34 10 51.68 10 51 C6.7 50.67 3.4 50.34 0 50 C0 49.67 0 49.34 0 49 C1.65 49 3.3 49 5 49 C3.74 46.49 2.5 46.13 0 45 C1.65 45 3.3 45 5 45 C5 44.34 5 43.68 5 43 C3.35 43 1.7 43 0 43 C0 28.81 0 14.62 0 0 Z " fill="#E3E4F0" transform="translate(83,74)"/>
<path d="M0 0 C19.6 16.89 34.74 40.1 36.88 66.48 C38.33 93.85 32.66 119.51 14.31 140.8 C13.51 141.68 12.71 142.57 11.88 143.48 C11.06 144.4 10.23 145.31 9.39 146.26 C-5.79 162.31 -28.29 174.67 -50.71 175.59 C-77.71 176.17 -102.16 171.68 -123.12 153.48 C-123.92 152.83 -124.71 152.17 -125.54 151.5 C-143.55 136.19 -155.31 113.9 -158.12 90.48 C-158.4 86.02 -158.46 81.58 -158.43 77.11 C-158.43 75.92 -158.42 74.73 -158.42 73.5 C-158.05 47.29 -146.43 23.25 -127.73 4.99 C-92.59 -27.83 -37.59 -29.71 0 0 Z M-91.12 -14.52 C-92.15 -14.15 -93.19 -13.77 -94.25 -13.39 C-118.51 -4.02 -138.16 14.26 -148.85 37.93 C-158.56 60.48 -160.18 88.48 -151.31 111.6 C-141.06 137.02 -122.23 156.38 -97.12 167.48 C-85.98 171.73 -75.63 173.69 -63.7 173.72 C-61.72 173.73 -59.75 173.76 -57.77 173.79 C-32.29 173.9 -10.1 163.1 7.88 145.48 C26.89 126.06 35.46 101.01 35.23 74.22 C34.56 48.68 23.76 25.89 6.11 7.61 C-16.58 -13.74 -42.5 -19.48 -72.71 -18.7 C-79.24 -18.35 -85.02 -16.89 -91.12 -14.52 Z " fill="#E1E1EF" transform="translate(161.12109375,23.51953125)"/>
<path d="M0 0 C12.21 0 24.42 0 37 0 C37.5 1.98 37.5 1.98 38 4 C45.92 3.5 45.92 3.5 54 3 C54.03 5.98 54.05 8.96 54.06 11.94 C54.07 12.79 54.08 13.64 54.09 14.51 C54.09 15.32 54.09 16.13 54.1 16.96 C54.1 17.71 54.11 18.46 54.11 19.23 C54 21 54 21 53 22 C50.48 22.09 47.99 22.12 45.46 22.1 C44.33 22.1 44.33 22.1 43.18 22.09 C40.77 22.09 38.35 22.08 35.94 22.06 C34.3 22.06 32.67 22.05 31.04 22.05 C27.02 22.04 23.01 22.02 19 22 C19.66 21.67 20.32 21.34 21 21 C21 20.01 21 19.02 21 18 C19.02 18 17.04 18 15 18 C15 18.99 15 19.98 15 21 C15.66 21.33 16.32 21.66 17 22 C11.39 22 5.78 22 0 22 C0 21.34 0 20.68 0 20 C0.99 20 1.98 20 3 20 C3 19.34 3 18.68 3 18 C2.01 18 1.02 18 0 18 C0 17.34 0 16.68 0 16 C0.99 16 1.98 16 3 16 C3 15.34 3 14.68 3 14 C2.01 14 1.02 14 0 14 C0 13.34 0 12.68 0 12 C0.99 12 1.98 12 3 12 C3 11.01 3 10.02 3 9 C2.01 8.67 1.02 8.34 0 8 C0.99 8 1.98 8 3 8 C3 7.34 3 6.68 3 6 C2.01 5.67 1.02 5.34 0 5 C1.32 5 2.64 5 4 5 C4 4.01 4 3.02 4 2 C2.68 2 1.36 2 0 2 C0 1.34 0 0.68 0 0 Z " fill="#7475B5" transform="translate(124,111)"/>
<path d="M0 0 C21.35 15.59 37.31 37.21 42.01 63.63 C45.83 89.16 41.01 115.01 26.16 136.36 C24.43 138.64 22.63 140.84 20.78 143.03 C20.13 143.83 19.47 144.63 18.79 145.46 C9.19 156.73 -2.03 164.15 -15.41 170.21 C-17.06 170.96 -18.69 171.76 -20.32 172.57 C-30.76 176.92 -41.99 177.56 -53.16 177.47 C-54.47 177.46 -55.79 177.46 -57.14 177.45 C-66.46 177.29 -74.49 176.47 -83.22 173.03 C-84.25 172.66 -85.28 172.28 -86.35 171.9 C-111.46 162.21 -130.96 143.21 -141.94 118.77 C-147.19 106.31 -148.57 94.83 -148.66 81.34 C-148.67 80.14 -148.68 78.95 -148.69 77.71 C-148.45 53.8 -138.97 32.76 -123.22 15.03 C-122.54 14.26 -121.87 13.49 -121.17 12.7 C-109.52 0.21 -93.51 -8.28 -77.22 -12.97 C-76.59 -13.15 -75.97 -13.33 -75.33 -13.52 C-50.16 -19.91 -21.38 -14.34 0 0 Z M-124.34 18.33 C-141.61 38.9 -149.11 63.85 -146.94 90.48 C-144.66 109.64 -137.95 127.36 -125.22 142.03 C-124.57 142.83 -123.91 143.62 -123.24 144.45 C-110.39 159.57 -93.41 169.28 -74.22 174.03 C-73.33 174.26 -72.44 174.48 -71.53 174.71 C-47.71 179.89 -21.64 173.73 -1.22 161.03 C2.35 158.59 5.58 155.94 8.78 153.03 C9.76 152.15 10.74 151.26 11.74 150.35 C25.15 137.81 34.24 121.86 38.78 104.03 C39.13 102.89 39.48 101.75 39.84 100.57 C45.65 77.04 39.5 51.58 27.78 31.03 C14.17 8.67 -8.08 -5.88 -33.16 -12.07 C-37.85 -13.15 -42.4 -13.86 -47.22 -13.97 C-48.59 -14.03 -48.59 -14.03 -49.99 -14.09 C-78.9 -14.77 -104.85 -2.81 -124.34 18.33 Z " fill="#40439A" transform="translate(153.21875,19.96875)"/>
<path d="M0 0 C12.21 0 24.42 0 37 0 C37 0.66 37 1.32 37 2 C36.01 2 35.02 2 34 2 C34 2.99 34 3.98 34 5 C34.99 5.33 35.98 5.66 37 6 C34.36 6 31.72 6 29 6 C29 9.3 29 12.6 29 16 C29.99 16 30.98 16 32 16 C32 13.36 32 10.72 32 8 C33.65 8 35.3 8 37 8 C36.01 8.33 35.02 8.66 34 9 C34 9.99 34 10.98 34 12 C34.99 12 35.98 12 37 12 C37 12.66 37 13.32 37 14 C36.01 14 35.02 14 34 14 C34 14.66 34 15.32 34 16 C34.99 16 35.98 16 37 16 C37 16.66 37 17.32 37 18 C34.69 18 32.38 18 30 18 C30 18.66 30 19.32 30 20 C32.31 20 34.62 20 37 20 C37 20.66 37 21.32 37 22 C29.08 22 21.16 22 13 22 C12.67 20.68 12.34 19.36 12 18 C9.36 18 6.72 18 4 18 C4 18.99 4 19.98 4 21 C2.35 21 0.7 21 -1 21 C-1 20.34 -1 19.68 -1 19 C-0.01 19 0.98 19 2 19 C1.67 18.01 1.34 17.02 1 16 C1 16.66 1 17.32 1 18 C0.01 18 -0.98 18 -2 18 C-2 19.32 -2 20.64 -2 22 C-6.29 22 -10.58 22 -15 22 C-15 21.01 -15 20.02 -15 19 C-13.35 19 -11.7 19 -10 19 C-10 17.68 -10 16.36 -10 15 C-11.65 15 -13.3 15 -15 15 C-15 14.67 -15 14.34 -15 14 C-13.35 14 -11.7 14 -10 14 C-10 13.01 -10 12.02 -10 11 C-11.65 11 -13.3 11 -15 11 C-15 9.68 -15 8.36 -15 7 C-13.35 7 -11.7 7 -10 7 C-10 6.34 -10 5.68 -10 5 C-11.65 5 -13.3 5 -15 5 C-15 4.67 -15 4.34 -15 4 C-10.05 3.67 -5.1 3.34 0 3 C0 2.01 0 1.02 0 0 Z " fill="#D5D5E9" transform="translate(39,111)"/>
<path d="M0 0 C14.32 10.92 25.21 26.26 27.75 44.41 C27.83 46.43 27.86 48.45 27.85 50.47 C27.85 51.58 27.84 52.69 27.84 53.83 C27.83 54.97 27.82 56.11 27.82 57.29 C27.81 58.45 27.81 59.62 27.8 60.82 C27.79 63.69 27.77 66.55 27.75 69.41 C30.72 69.41 33.69 69.41 36.75 69.41 C36.75 69.74 36.75 70.07 36.75 70.41 C31.8 70.41 26.85 70.41 21.75 70.41 C21.42 69.42 21.09 68.43 20.75 67.41 C8.54 67.08 -3.67 66.75 -16.25 66.41 C-16.25 67.07 -16.25 67.73 -16.25 68.41 C-17.9 68.41 -19.55 68.41 -21.25 68.41 C-21.74 69.9 -21.74 69.9 -22.25 71.41 C-22.58 71.41 -22.91 71.41 -23.25 71.41 C-23.25 57.55 -23.25 43.69 -23.25 29.41 C-24.9 29.74 -26.55 30.07 -28.25 30.41 C-28.25 28.76 -28.25 27.11 -28.25 25.41 C-28.84 25.42 -29.44 25.43 -30.05 25.43 C-32.74 25.45 -35.43 25.46 -38.12 25.48 C-39.06 25.49 -40 25.49 -40.96 25.5 C-42.31 25.51 -42.31 25.51 -43.68 25.51 C-44.92 25.52 -44.92 25.52 -46.18 25.53 C-48.25 25.41 -48.25 25.41 -50.25 24.41 C-50.25 23.09 -50.25 21.77 -50.25 20.41 C-47.61 20.08 -44.97 19.75 -42.25 19.41 C-41.92 17.43 -41.59 15.45 -41.25 13.41 C-40.59 13.41 -39.93 13.41 -39.25 13.41 C-38.75 16.88 -38.75 16.88 -38.25 20.41 C-35.28 20.41 -32.31 20.41 -29.25 20.41 C-29.25 21.4 -29.25 22.39 -29.25 23.41 C-28.59 23.41 -27.93 23.41 -27.25 23.41 C-27.25 25.06 -27.25 26.71 -27.25 28.41 C-25.6 28.41 -23.95 28.41 -22.25 28.41 C-22.25 40.95 -22.25 53.49 -22.25 66.41 C-20.6 66.08 -18.95 65.75 -17.25 65.41 C-15.84 65.33 -14.42 65.3 -13.01 65.3 C-11.81 65.3 -11.81 65.3 -10.58 65.3 C-9.73 65.31 -8.88 65.31 -8.01 65.32 C-7.13 65.32 -6.25 65.32 -5.34 65.32 C-2.54 65.33 0.26 65.34 3.07 65.35 C4.97 65.36 6.87 65.36 8.78 65.37 C13.44 65.38 18.09 65.39 22.75 65.41 C23.08 66.73 23.41 68.05 23.75 69.41 C24.41 69.41 25.07 69.41 25.75 69.41 C26.39 46.76 23.57 27.39 8.16 9.81 C-4.73 -3.03 -21.64 -9.79 -39.68 -9.96 C-58.51 -9.75 -75.11 -3.28 -88.4 10.2 C-100.7 23.55 -105.39 39.71 -105.87 57.41 C-105.93 59.15 -105.93 59.15 -105.99 60.92 C-106.08 63.75 -106.17 66.58 -106.25 69.41 C-105.26 69.41 -104.27 69.41 -103.25 69.41 C-103.25 68.09 -103.25 66.77 -103.25 65.41 C-97.64 65.39 -92.04 65.37 -86.43 65.36 C-84.53 65.35 -82.62 65.35 -80.71 65.34 C-77.97 65.33 -75.23 65.32 -72.49 65.32 C-71.21 65.31 -71.21 65.31 -69.91 65.3 C-65.89 65.3 -62.17 65.41 -58.25 66.41 C-60.23 66.91 -60.23 66.91 -62.25 67.41 C-61.92 68.73 -61.59 70.05 -61.25 71.41 C-61.91 71.41 -62.57 71.41 -63.25 71.41 C-63.25 75.04 -63.25 78.67 -63.25 82.41 C-64.57 82.41 -65.89 82.41 -67.25 82.41 C-67.25 81.75 -67.25 81.09 -67.25 80.41 C-66.26 80.41 -65.27 80.41 -64.25 80.41 C-64.25 79.75 -64.25 79.09 -64.25 78.41 C-65.24 78.41 -66.23 78.41 -67.25 78.41 C-67.25 77.42 -67.25 76.43 -67.25 75.41 C-68.24 74.92 -68.24 74.92 -69.25 74.41 C-69.25 77.05 -69.25 79.69 -69.25 82.41 C-70.24 82.41 -71.23 82.41 -72.25 82.41 C-72.25 79.11 -72.25 75.81 -72.25 72.41 C-69.77 71.92 -69.77 71.92 -67.25 71.41 C-67.25 70.42 -67.25 69.43 -67.25 68.41 C-66.26 68.41 -65.27 68.41 -64.25 68.41 C-64.25 67.75 -64.25 67.09 -64.25 66.41 C-76.46 66.41 -88.67 66.41 -101.25 66.41 C-101.25 67.4 -101.25 68.39 -101.25 69.41 C-100.59 69.74 -99.93 70.07 -99.25 70.41 C-105.19 70.91 -105.19 70.91 -111.25 71.41 C-111.25 72.07 -111.25 72.73 -111.25 73.41 C-112.9 73.41 -114.55 73.41 -116.25 73.41 C-116.25 74.73 -116.25 76.05 -116.25 77.41 C-114.6 77.41 -112.95 77.41 -111.25 77.41 C-111.25 79.72 -111.25 82.03 -111.25 84.41 C-112.9 84.41 -114.55 84.41 -116.25 84.41 C-116.58 86.06 -116.91 87.71 -117.25 89.41 C-111.31 89.41 -105.37 89.41 -99.25 89.41 C-99.25 89.74 -99.25 90.07 -99.25 90.41 C-105.52 90.41 -111.79 90.41 -118.25 90.41 C-118.25 83.48 -118.25 76.55 -118.25 69.41 C-114.62 69.41 -110.99 69.41 -107.25 69.41 C-107.58 68.09 -107.91 66.77 -108.25 65.41 C-109.51 45.42 -105.58 27.05 -92.32 11.51 C-68.64 -14.69 -29.38 -21.31 0 0 Z " fill="#5154A4" transform="translate(140.2470703125,44.58544921875)"/>
<path d="M0 0 C12.21 0 24.42 0 37 0 C37 0.99 37 1.98 37 3 C36.34 3 35.68 3 35 3 C35 3.99 35 4.98 35 6 C28.4 6 21.8 6 15 6 C15 9.3 15 12.6 15 16 C21.6 16 28.2 16 35 16 C35 16.99 35 17.98 35 19 C35.99 19 36.98 19 38 19 C38 19.66 38 20.32 38 21 C36.35 21 34.7 21 33 21 C33 20.01 33 19.02 33 18 C29.37 18 25.74 18 22 18 C22 18.66 22 19.32 22 20 C22.66 20 23.32 20 24 20 C24 20.66 24 21.32 24 22 C22.35 22 20.7 22 19 22 C19.66 21.67 20.32 21.34 21 21 C21 20.01 21 19.02 21 18 C19.02 18 17.04 18 15 18 C15 18.99 15 19.98 15 21 C15.66 21.33 16.32 21.66 17 22 C11.39 22 5.78 22 0 22 C0 21.34 0 20.68 0 20 C0.99 20 1.98 20 3 20 C3 19.34 3 18.68 3 18 C2.01 18 1.02 18 0 18 C0 17.34 0 16.68 0 16 C0.99 16 1.98 16 3 16 C3 15.34 3 14.68 3 14 C2.01 14 1.02 14 0 14 C0 13.34 0 12.68 0 12 C0.99 12 1.98 12 3 12 C3 11.01 3 10.02 3 9 C2.01 8.67 1.02 8.34 0 8 C0.99 8 1.98 8 3 8 C3 7.34 3 6.68 3 6 C2.01 5.67 1.02 5.34 0 5 C1.32 5 2.64 5 4 5 C4 4.01 4 3.02 4 2 C2.68 2 1.36 2 0 2 C0 1.34 0 0.68 0 0 Z " fill="#EBEBF4" transform="translate(124,111)"/>
<path d="M0 0 C13.14 11.3 21.15 26.65 23.25 43.81 C24.15 58.9 24.15 58.9 22.25 64.81 C21.59 64.81 20.93 64.81 20.25 64.81 C20.27 64.16 20.29 63.51 20.31 62.83 C20.92 40.91 18.52 22.8 2.78 6.07 C-10.17 -6.89 -25.68 -12.6 -43.81 -12.81 C-60.69 -12.64 -76.28 -6.97 -88.81 4.68 C-104.87 22.36 -108.38 41.72 -107.75 64.81 C-108.41 64.81 -109.07 64.81 -109.75 64.81 C-110.63 42.19 -108.77 24.34 -93.38 6.5 C-67.76 -20.45 -29.22 -22.4 0 0 Z " fill="#EFEFF6" transform="translate(143.75,49.1875)"/>
<path d="M0 0 C0.66 0 1.32 0 2 0 C2.33 2.31 2.66 4.62 3 7 C5.97 7 8.94 7 12 7 C12 7.99 12 8.98 12 10 C12.66 10 13.32 10 14 10 C14 11.65 14 13.3 14 15 C15.65 15 17.3 15 19 15 C19 27.54 19 40.08 19 53 C21.47 52.5 21.47 52.5 24 52 C25.41 51.92 26.83 51.88 28.24 51.89 C29.04 51.89 29.84 51.89 30.67 51.89 C31.94 51.89 31.94 51.89 33.24 51.9 C34.12 51.9 35 51.91 35.91 51.91 C38.71 51.91 41.51 51.92 44.31 51.94 C46.22 51.94 48.12 51.95 50.03 51.95 C54.68 51.96 59.34 51.98 64 52 C64.5 53.98 64.5 53.98 65 56 C65.66 56 66.32 56 67 56 C67.33 48.41 67.66 40.82 68 33 C68.33 33 68.66 33 69 33 C69 40.59 69 48.18 69 56 C71.97 56 74.94 56 78 56 C78 56.33 78 56.66 78 57 C73.05 57 68.1 57 63 57 C62.67 56.01 62.34 55.02 62 54 C43.69 53.5 43.69 53.5 25 53 C25 53.66 25 54.32 25 55 C23.35 55 21.7 55 20 55 C19.67 55.99 19.34 56.98 19 58 C18.67 58 18.34 58 18 58 C18 44.14 18 30.28 18 16 C16.35 16.33 14.7 16.66 13 17 C13 15.35 13 13.7 13 12 C12.4 12.01 11.81 12.01 11.2 12.02 C8.51 12.04 5.82 12.05 3.12 12.06 C2.19 12.07 1.25 12.08 0.29 12.09 C-1.06 12.09 -1.06 12.09 -2.43 12.1 C-3.26 12.1 -4.08 12.11 -4.94 12.11 C-7 12 -7 12 -9 11 C-9 9.68 -9 8.36 -9 7 C-6.36 6.67 -3.72 6.34 -1 6 C-0.67 4.02 -0.34 2.04 0 0 Z " fill="#282F91" transform="translate(99,58)"/>
<path d="M0 0 C0.66 0 1.32 0 2 0 C-2.27 12.36 -13.85 21.53 -25.12 27.31 C-43 35.74 -62.32 36.61 -81 30 C-93.9 24.64 -105.56 14.92 -113 3 C-113 2.34 -113 1.68 -113 1 C-109.48 2.17 -108.94 3.12 -106.81 6.06 C-97.2 18.69 -85.03 27.21 -69.3 30.58 C-48.78 33.2 -30.88 29.73 -14.29 16.9 C-9.04 12.43 -5.06 7.7 -1.38 1.87 C-0.92 1.25 -0.47 0.64 0 0 Z " fill="#E4E5F0" transform="translate(156,134)"/>
<path d="M0 0 C9.24 0 18.48 0 28 0 C28 2.97 28 5.94 28 9 C18.76 9 9.52 9 0 9 C0 6.03 0 3.06 0 0 Z " fill="#8586BF" transform="translate(86,107)"/>
<path d="M0 0 C1.65 0 3.3 0 5 0 C4.67 3.3 4.34 6.6 4 10 C3.01 10 2.02 10 1 10 C1 10.66 1 11.32 1 12 C1.99 12 2.98 12 4 12 C4 12.66 4 13.32 4 14 C3.01 14 2.02 14 1 14 C1 14.66 1 15.32 1 16 C1.99 16 2.98 16 4 16 C4 16.66 4 17.32 4 18 C3.01 18 2.02 18 1 18 C1 18.66 1 19.32 1 20 C5.95 19.67 10.9 19.34 16 19 C16 18.01 16 17.02 16 16 C17.98 16 19.96 16 22 16 C22 16.99 22 17.98 22 19 C32.89 19 43.78 19 55 19 C55 19.66 55 20.32 55 21 C53.77 20.97 52.54 20.94 51.27 20.9 C42.5 20.54 42.5 20.54 34.75 23.75 C33.31 26.11 32.17 28.5 31 31 C23.27 41.67 10.8 50.6 -2 54 C-4.34 53.62 -4.34 53.62 -6 53 C-5.03 52.65 -4.07 52.3 -3.07 51.93 C5.11 48.87 12.11 45.5 19 40 C19.62 39.54 20.24 39.08 20.88 38.61 C26.74 34.04 31.68 27.64 35 21 C34.01 21.33 33.02 21.66 32 22 C29.19 22.02 26.42 21.97 23.61 21.88 C22.8 21.86 21.98 21.83 21.14 21.81 C18.53 21.73 15.92 21.65 13.31 21.56 C11.54 21.51 9.77 21.46 8.01 21.4 C3.67 21.28 -0.66 21.14 -5 21 C-5 20.34 -5 19.68 -5 19 C-3.35 19 -1.7 19 0 19 C0 12.73 0 6.46 0 0 Z " fill="#3A3D97" transform="translate(123,113)"/>
<path d="M0 0 C9.57 0 19.14 0 29 0 C29 2.64 29 5.28 29 8 C19.43 8 9.86 8 0 8 C0 5.36 0 2.72 0 0 Z " fill="#A4A5CF" transform="translate(86,80)"/>
<path d="M0 0 C5.28 0 10.56 0 16 0 C15.67 2.31 15.34 4.62 15 7 C15.66 7.33 16.32 7.66 17 8 C16.01 8 15.02 8 14 8 C14 9.32 14 10.64 14 12 C14.66 12 15.32 12 16 12 C16 12.66 16 13.32 16 14 C15.01 14 14.02 14 13 14 C13 15.32 13 16.64 13 18 C8.71 18 4.42 18 0 18 C0 17.01 0 16.02 0 15 C1.65 15 3.3 15 5 15 C5 13.68 5 12.36 5 11 C3.35 11 1.7 11 0 11 C0 10.67 0 10.34 0 10 C1.65 10 3.3 10 5 10 C5 9.01 5 8.02 5 7 C3.35 7 1.7 7 0 7 C0 5.68 0 4.36 0 3 C1.65 3 3.3 3 5 3 C5 2.34 5 1.68 5 1 C3.35 1 1.7 1 0 1 C0 0.67 0 0.34 0 0 Z " fill="#DDDEED" transform="translate(24,115)"/>
<path d="M0 0 C12.21 0 24.42 0 37 0 C37 0.33 37 0.66 37 1 C32.71 1 28.42 1 24 1 C24 2.32 24 3.64 24 5 C21.03 5 18.06 5 15 5 C15 3.68 15 2.36 15 1 C12.69 1 10.38 1 8 1 C9.07 2.3 9.07 2.3 11.56 2.06 C12.37 2.04 13.17 2.02 14 2 C14.05 3.58 14.09 5.17 14.12 6.75 C14.15 7.63 14.17 8.51 14.2 9.42 C13.99 12.11 13.37 13.7 12 16 C11.34 16 10.68 16 10 16 C9.67 13.36 9.34 10.72 9 8 C8.67 10.64 8.34 13.28 8 16 C6.35 16 4.7 16 3 16 C3 15.34 3 14.68 3 14 C2.01 14 1.02 14 0 14 C0 13.34 0 12.68 0 12 C0.99 12 1.98 12 3 12 C3 11.01 3 10.02 3 9 C2.01 8.67 1.02 8.34 0 8 C0.99 8 1.98 8 3 8 C3 7.34 3 6.68 3 6 C2.01 5.67 1.02 5.34 0 5 C1.32 5 2.64 5 4 5 C4 4.01 4 3.02 4 2 C2.68 2 1.36 2 0 2 C0 1.34 0 0.68 0 0 Z " fill="#9B9CCA" transform="translate(124,111)"/>
<path d="M0 0 C2.97 0.5 2.97 0.5 6 1 C5.67 4.63 5.34 8.26 5 12 C6.32 12 7.64 12 9 12 C9 8.7 9 5.4 9 2 C8.34 1.67 7.68 1.34 7 1 C8.32 1 9.64 1 11 1 C11 1.66 11 2.32 11 3 C12.65 3 14.3 3 16 3 C16 4.32 16 5.64 16 7 C14.35 7 12.7 7 11 7 C11 9.64 11 12.28 11 15 C12.65 15 14.3 15 16 15 C16 15.99 16 16.98 16 18 C11.71 18 7.42 18 3 18 C3 16.68 3 15.36 3 14 C2.01 14 1.02 14 0 14 C0 13.34 0 12.68 0 12 C0.66 12 1.32 12 2 12 C2 10.68 2 9.36 2 8 C1.01 8 0.02 8 -1 8 C-1 8.66 -1 9.32 -1 10 C-4.63 10 -8.26 10 -12 10 C-12 9.67 -12 9.34 -12 9 C-9.36 9 -6.72 9 -4 9 C-4 8.01 -4 7.02 -4 6 C-6.64 6 -9.28 6 -12 6 C-12.33 5.34 -12.66 4.68 -13 4 C-6.56 3.5 -6.56 3.5 0 3 C0 4.32 0 5.64 0 7 C0.66 7 1.32 7 2 7 C1.34 4.69 0.68 2.38 0 0 Z " fill="#EEEEF6" transform="translate(160,115)"/>
<path d="M0 0 C1.32 0 2.64 0 4 0 C4 1.98 4 3.96 4 6 C2.02 6 0.04 6 -2 6 C-2 8.64 -2 11.28 -2 14 C-10.41 14.5 -10.41 14.5 -19 15 C-19 11.37 -19 7.74 -19 4 C-18.05 4.01 -17.09 4.02 -16.11 4.04 C-14.86 4.04 -13.6 4.05 -12.31 4.06 C-11.07 4.07 -9.83 4.09 -8.55 4.1 C-5.54 4.01 -2.92 3.71 0 3 C0 2.01 0 1.02 0 0 Z " fill="#6F71B3" transform="translate(63,113)"/>
<path d="M0 0 C1.32 0 2.64 0 4 0 C4 6.27 4 12.54 4 19 C2.02 19.33 0.04 19.66 -2 20 C-2 19.34 -2 18.68 -2 18 C-5.3 18 -8.6 18 -12 18 C-12 17.34 -12 16.68 -12 16 C-8.7 16 -5.4 16 -2 16 C-2 15.34 -2 14.68 -2 14 C-5.3 14 -8.6 14 -12 14 C-12 13.34 -12 12.68 -12 12 C-8.7 12 -5.4 12 -2 12 C-2 11.34 -2 10.68 -2 10 C-3.32 10 -4.64 10 -6 10 C-6 8.02 -6 6.04 -6 4 C-5.2 3.71 -4.39 3.42 -3.56 3.12 C-0.87 2.27 -0.87 2.27 0 0 Z " fill="#5C5EA9" transform="translate(119,113)"/>
<path d="M0 0 C9.57 0 19.14 0 29 0 C28.67 1.65 28.34 3.3 28 5 C26.69 4.98 26.69 4.98 25.36 4.96 C18.28 4.91 11.36 5.12 4.33 5.88 C2 6 2 6 0 5 C0 3.35 0 1.7 0 0 Z " fill="#8C8EC2" transform="translate(86,97)"/>
<path d="M0 0 C-1 3 -1 3 -3 6 C-2.01 6 -1.02 6 0 6 C0.33 5.34 0.66 4.68 1 4 C1 5.65 1 7.3 1 9 C1.66 9 2.32 9 3 9 C3.33 10.65 3.66 12.3 4 14 C4.66 13.67 5.32 13.34 6 13 C6.33 15.97 6.66 18.94 7 22 C6.01 21.67 5.02 21.34 4 21 C4.33 20.01 4.66 19.02 5 18 C4.34 18 3.68 18 3 18 C2.67 19.32 2.34 20.64 2 22 C1.01 21.67 0.02 21.34 -1 21 C-0.34 20.01 0.32 19.02 1 18 C1 16.68 1 15.36 1 14 C0.01 16.31 -0.98 18.62 -2 21 C-2.66 21 -3.32 21 -4 21 C-3.67 19.02 -3.34 17.04 -3 15 C-2.34 15 -1.68 15 -1 15 C-0.67 13.68 -0.34 12.36 0 11 C-1.32 10.67 -2.64 10.34 -4 10 C-4 11.65 -4 13.3 -4 15 C-5.32 14.34 -6.64 13.68 -8 13 C-7.67 11.68 -7.34 10.36 -7 9 C-7.66 9 -8.32 9 -9 9 C-9 8.34 -9 7.68 -9 7 C-8.01 7 -7.02 7 -6 7 C-6 5.35 -6 3.7 -6 2 C-2.25 0 -2.25 0 0 0 Z " fill="#3D4099" transform="translate(153,151)"/>
<path d="M0 0 C1.65 0.33 3.3 0.66 5 1 C6.31 3.06 6.31 3.06 7 5 C7.33 3.68 7.66 2.36 8 1 C9.32 1 10.64 1 12 1 C11.67 5.29 11.34 9.58 11 14 C9.35 13.67 7.7 13.34 6 13 C4.69 10.94 4.69 10.94 4 9 C3.34 10.32 2.68 11.64 2 13 C1.01 13 0.02 13 -1 13 C-0.67 8.71 -0.34 4.42 0 0 Z " fill="#2E3191" transform="translate(107,14)"/>
<path d="M0 0 C5.14 2.57 5.14 2.57 7 6 C6.69 8.75 6.69 8.75 6 11 C4.68 11 3.36 11 2 11 C1.67 12.65 1.34 14.3 1 16 C0.01 16 -0.98 16 -2 16 C-3.21 12.38 -2.54 11.36 -1 8 C-3.47 9.48 -3.47 9.48 -6 11 C-6.66 9.68 -7.32 8.36 -8 7 C-5.36 4.69 -2.72 2.38 0 0 Z " fill="#363995" transform="translate(160,39)"/>
<path d="M0 0 C9.24 0 18.48 0 28 0 C28 1.32 28 2.64 28 4 C25.36 4 22.72 4 20 4 C20 4.66 20 5.32 20 6 C18.35 6 16.7 6 15 6 C15 5.34 15 4.68 15 4 C10.05 4 5.1 4 0 4 C0 2.68 0 1.36 0 0 Z " fill="#A3A5CE" transform="translate(86,107)"/>
<path d="M0 0 C4.13 0.61 7.33 2.04 11 4 C10.81 5.88 10.81 5.88 10 8 C7.44 9.25 7.44 9.25 5 10 C5.99 10.66 6.98 11.32 8 12 C7.67 12.99 7.34 13.98 7 15 C2.87 14.39 -0.33 12.96 -4 11 C-3.88 9.12 -3.88 9.12 -3 7 C0.06 5.75 0.06 5.75 3 5 C1.68 4.34 0.36 3.68 -1 3 C-0.67 2.01 -0.34 1.02 0 0 Z " fill="#292C8E" transform="translate(24,59)"/>
<path d="M0 0 C-0.38 1.94 -0.38 1.94 -1 4 C-3.71 5.36 -5.85 5.11 -8.88 5.1 C-10.05 5.09 -11.22 5.09 -12.42 5.09 C-13.64 5.08 -14.86 5.07 -16.12 5.06 C-17.36 5.06 -18.59 5.05 -19.86 5.05 C-22.9 5.04 -25.95 5.02 -29 5 C-28.67 4.01 -28.34 3.02 -28 2 C-20.35 -1.83 -8.39 -0.1 0 0 Z " fill="#B9BADA" transform="translate(115,101)"/>
<path d="M0 0 C0.76 0.08 1.53 0.16 2.31 0.25 C1.98 1.24 1.65 2.23 1.31 3.25 C0.32 3.58 -0.67 3.91 -1.69 4.25 C-1.69 5.57 -1.69 6.89 -1.69 8.25 C-0.04 8.58 1.61 8.91 3.31 9.25 C3.31 8.59 3.31 7.93 3.31 7.25 C2.32 7.25 1.33 7.25 0.31 7.25 C0.97 5.6 1.63 3.95 2.31 2.25 C4.48 2.76 6.31 3.25 8.31 4.25 C8.01 7.78 7.28 9.29 5.06 12.12 C2.31 14.25 2.31 14.25 -0.31 14.25 C-2.89 13.17 -4.15 12.59 -5.69 10.25 C-6.12 6.89 -6.02 4.92 -4.5 1.88 C-2.69 0.25 -2.69 0.25 0 0 Z " fill="#2E3191" transform="translate(35.6875,44.75)"/>
<path d="M0 0 C0 1.32 0 2.64 0 4 C-0.99 4 -1.98 4 -3 4 C-2.67 6.97 -2.34 9.94 -2 13 C-3.46 12.21 -4.92 11.42 -6.38 10.62 C-7.59 9.96 -7.59 9.96 -8.84 9.29 C-11 8 -11 8 -13 6 C-13.12 3.38 -13.12 3.38 -13 1 C-8.61 0.14 -4.47 -0.09 0 0 Z " fill="#363895" transform="translate(29,77)"/>
<path d="M0 0 C3.44 1.24 6.25 2.56 9 5 C9 5.66 9 6.32 9 7 C8.22 6.84 7.43 6.67 6.62 6.5 C4.12 5.94 4.12 5.94 2 6 C2.99 6.66 3.98 7.32 5 8 C5 8.99 5 9.98 5 11 C3.02 10.34 1.04 9.68 -1 9 C0.32 10.32 1.64 11.64 3 13 C2.67 13.99 2.34 14.98 2 16 C-0.97 14.02 -3.94 12.04 -7 10 C-1.12 1.12 -1.12 1.12 0 0 Z " fill="#2F3291" transform="translate(148,29)"/>
<path d="M0 0 C0 0.99 0 1.98 0 3 C-2 4.69 -2 4.69 -4 6 C-2.35 5.67 -0.7 5.34 1 5 C0 7.99 -0.75 8.95 -3 11 C0.47 10.5 0.47 10.5 4 10 C3.67 10.99 3.34 11.98 3 13 C0.93 13.95 0.93 13.95 -1.56 14.69 C-2.8 15.06 -2.8 15.06 -4.07 15.45 C-4.7 15.63 -5.34 15.81 -6 16 C-6.7 14.4 -7.38 12.8 -8.06 11.19 C-8.45 10.29 -8.83 9.4 -9.22 8.48 C-10 6 -10 6 -9 3 C-2.89 0 -2.89 0 0 0 Z " fill="#303392" transform="translate(75,17)"/>
<path d="M0 0 C12.21 0 24.42 0 37 0 C37 0.66 37 1.32 37 2 C36.01 2 35.02 2 34 2 C34 2.99 34 3.98 34 5 C34.99 5.33 35.98 5.66 37 6 C34.36 6 31.72 6 29 6 C29 4.35 29 2.7 29 1 C26.69 1 24.38 1 22 1 C22 2.32 22 3.64 22 5 C19.03 5 16.06 5 13 5 C13 4.01 13 3.02 13 2 C8.71 1.67 4.42 1.34 0 1 C0 0.67 0 0.34 0 0 Z " fill="#8385BE" transform="translate(39,111)"/>
<path d="M0 0 C0.99 0 1.98 0 3 0 C3.33 2.64 3.66 5.28 4 8 C4.99 8.33 5.98 8.66 7 9 C7.33 6.03 7.66 3.06 8 0 C8.99 0 9.98 0 11 0 C12.19 3.58 12.34 6.24 12 10 C10.44 12 10.44 12 8 13 C4.31 12.81 4.31 12.81 1 12 C-0.26 9.48 -0.1 7.69 -0.06 4.88 C-0.05 3.96 -0.04 3.05 -0.04 2.12 C-0.02 1.42 -0.01 0.72 0 0 Z " fill="#2A2D8F" transform="translate(90,14)"/>
<path d="M0 0 C1.32 0.33 2.64 0.66 4 1 C3.34 1 2.68 1 2 1 C2 4.3 2 7.6 2 11 C2.99 11 3.98 11 5 11 C5 12.98 5 14.96 5 17 C1.7 17 -1.6 17 -5 17 C-5 16.01 -5 15.02 -5 14 C-3.35 14 -1.7 14 0 14 C0 12.68 0 11.36 0 10 C-1.65 10 -3.3 10 -5 10 C-5 9.67 -5 9.34 -5 9 C-3.35 9 -1.7 9 0 9 C0 8.01 0 7.02 0 6 C-1.65 6 -3.3 6 -5 6 C-5 4.68 -5 3.36 -5 2 C-3.35 2 -1.7 2 0 2 C0 1.34 0 0.68 0 0 Z " fill="#E4E5F1" transform="translate(29,116)"/>
<path d="M0 0 C0.66 0.33 1.32 0.66 2 1 C0.8 3.49 -0.45 5.68 -2 8 C-1.34 8 -0.68 8 0 8 C0 7.34 0 6.68 0 6 C0.66 6 1.32 6 2 6 C2.33 7.32 2.66 8.64 3 10 C1.35 10 -0.3 10 -2 10 C-1.34 10.33 -0.68 10.66 0 11 C0 11.66 0 12.32 0 13 C-0.66 13 -1.32 13 -2 13 C-2 13.66 -2 14.32 -2 15 C-1.01 15.33 -0.02 15.66 1 16 C-0.65 16.66 -2.3 17.32 -4 18 C-4.33 16.68 -4.66 15.36 -5 14 C-7.31 14 -9.62 14 -12 14 C-12 13.34 -12 12.68 -12 12 C-8.95 11.02 -7.05 11.02 -4 12 C-4.33 11.34 -4.66 10.68 -5 10 C-8.03 9.34 -8.03 9.34 -11 9 C-11 8.34 -11 7.68 -11 7 C-8.69 7 -6.38 7 -4 7 C-3.71 6.22 -3.42 5.43 -3.12 4.62 C-2 2 -2 2 0 0 Z " fill="#363995" transform="translate(47,153)"/>
<path d="M0 0 C2.44 0.25 2.44 0.25 5 1 C7 4 7 4 6.62 6.69 C6.42 7.45 6.21 8.21 6 9 C5.34 9 4.68 9 4 9 C3.67 7.35 3.34 5.7 3 4 C2.67 6.64 2.34 9.28 2 12 C0.35 12.33 -1.3 12.66 -3 13 C-5.35 10.45 -5.98 9.29 -6.19 5.75 C-6.13 4.84 -6.06 3.94 -6 3 C-5.01 3.33 -4.02 3.66 -3 4 C-3 5.65 -3 7.3 -3 9 C-2.34 9 -1.68 9 -1 9 C-1.02 7.7 -1.04 6.4 -1.06 5.06 C-1.08 3.71 -1.07 2.35 -1 1 C-0.67 0.67 -0.34 0.34 0 0 Z " fill="#2B2E8F" transform="translate(169,53)"/>
<path d="M0 0 C-0.33 3.3 -0.66 6.6 -1 10 C0.65 9.34 2.3 8.68 4 8 C4.33 8.99 4.66 9.98 5 11 C3.73 11.67 2.46 12.34 1.19 13 C0.48 13.37 -0.23 13.74 -0.96 14.12 C-3 15 -3 15 -6 15 C-5.67 11.7 -5.34 8.4 -5 5 C-6.65 5.33 -8.3 5.66 -10 6 C-9 3 -9 3 -6.12 1.31 C-3 0 -3 0 0 0 Z " fill="#26298D" transform="translate(62,24)"/>
<path d="M0 0 C1.32 0 2.64 0 4 0 C3.67 1.98 3.34 3.96 3 6 C2.34 6 1.68 6 1 6 C1 6.99 1 7.98 1 9 C1.66 9.33 2.32 9.66 3 10 C2.34 10 1.68 10 1 10 C1 10.66 1 11.32 1 12 C1.66 12 2.32 12 3 12 C3 14.64 3 17.28 3 20 C1.35 20 -0.3 20 -2 20 C-2 19.34 -2 18.68 -2 18 C-4.31 18 -6.62 18 -9 18 C-9 17.34 -9 16.68 -9 16 C-6.69 16 -4.38 16 -2 16 C-1.94 15.1 -1.88 14.19 -1.82 13.26 C-1.73 12.08 -1.65 10.9 -1.56 9.69 C-1.48 8.52 -1.4 7.34 -1.32 6.14 C-1 3 -1 3 0 0 Z " fill="#9798C8" transform="translate(78,113)"/>
<path d="M0 0 C0.66 0 1.32 0 2 0 C1.43 3.87 -0.49 6.08 -3 9 C-1.35 9 0.3 9 2 9 C2.33 8.01 2.66 7.02 3 6 C2.34 5.67 1.68 5.34 1 5 C3.31 4.34 5.62 3.68 8 3 C8 6.8 7.5 8.63 6 12 C1.24 12.72 -3.19 13 -8 13 C-8 12.34 -8 11.68 -8 11 C-7.13 10.16 -7.13 10.16 -6.25 9.31 C-3.46 6.44 -1.9 3.52 0 0 Z " fill="#313392" transform="translate(77,172)"/>
<path d="M0 0 C0.99 0.33 1.98 0.66 3 1 C3 3.64 3 6.28 3 9 C5.97 6.52 5.97 6.52 9 4 C9.66 4.33 10.32 4.66 11 5 C9.47 8.99 6.58 12.65 3 15 C0.8 14.67 0.8 14.67 -1 14 C-1.03 12.42 -1.05 10.83 -1.06 9.25 C-1.07 8.37 -1.09 7.49 -1.1 6.58 C-1.01 4.22 -0.67 2.26 0 0 Z " fill="#282A8D" transform="translate(133,20)"/>
<path d="M0 0 C2.31 0 4.62 0 7 0 C7 4.95 7 9.9 7 15 C7.99 15 8.98 15 10 15 C10 12.36 10 9.72 10 7 C11.65 7 13.3 7 15 7 C14.01 7.33 13.02 7.66 12 8 C12 8.99 12 9.98 12 11 C12.99 11 13.98 11 15 11 C15 11.66 15 12.32 15 13 C14.01 13 13.02 13 12 13 C12 13.66 12 14.32 12 15 C12.99 15 13.98 15 15 15 C15 15.66 15 16.32 15 17 C12.36 17 9.72 17 7 17 C6.67 17.99 6.34 18.98 6 20 C6 19.01 6 18.02 6 17 C4.68 16.67 3.36 16.34 2 16 C3.32 15.67 4.64 15.34 6 15 C6 10.38 6 5.76 6 1 C4.68 1 3.36 1 2 1 C2 1.99 2 2.98 2 4 C1.34 4 0.68 4 0 4 C0 2.68 0 1.36 0 0 Z " fill="#F4F4F9" transform="translate(61,112)"/>
<path d="M0 0 C0.45 0.35 0.89 0.7 1.36 1.06 C4.85 3.69 7.51 5.59 12 6 C12 7.32 12 8.64 12 10 C11.4 10.12 10.79 10.24 10.17 10.37 C9.37 10.53 8.57 10.7 7.75 10.88 C6.57 11.12 6.57 11.12 5.36 11.37 C3.03 11.99 1.11 12.85 -1 14 C-1 12.35 -1 10.7 -1 9 C0.32 8.67 1.64 8.34 3 8 C3 7.34 3 6.68 3 6 C2.01 5.67 1.02 5.34 0 5 C0 3.35 0 1.7 0 0 Z " fill="#323593" transform="translate(14,88)"/>
<path d="M0 0 C0.99 0 1.98 0 3 0 C4.42 3.82 5.24 6.91 5 11 C4.01 11.33 3.02 11.66 2 12 C2 11.01 2 10.02 2 9 C-1.3 9.66 -4.6 10.32 -8 11 C-7.67 9.35 -7.34 7.7 -7 6 C-3.53 5.5 -3.53 5.5 0 5 C0 3.35 0 1.7 0 0 Z " fill="#333693" transform="translate(180,73)"/>
<path d="M0 0 C7.92 0 15.84 0 24 0 C24 1.32 24 2.64 24 4 C22.35 4 20.7 4 19 4 C19 3.34 19 2.68 19 2 C18.01 2.33 17.02 2.66 16 3 C15.34 2.67 14.68 2.34 14 2 C13.67 2.66 13.34 3.32 13 4 C13 3.34 13 2.68 13 2 C12.34 2 11.68 2 11 2 C10.67 2.66 10.34 3.32 10 4 C10 3.34 10 2.68 10 2 C9.34 2 8.68 2 8 2 C8 2.66 8 3.32 8 4 C5.36 4 2.72 4 0 4 C0 2.68 0 1.36 0 0 Z " fill="#D1D2E7" transform="translate(88,70)"/>
<path d="M0 0 C0.99 0.33 1.98 0.66 3 1 C2.75 1.74 2.51 2.48 2.25 3.25 C2.17 4.16 2.09 5.06 2 6 C3.31 7.35 4.65 8.69 6 10 C5.75 12.25 5.75 12.25 5 14 C2.44 12.9 0.94 11.93 -1 9.88 C-3.03 7.54 -3.03 7.54 -7 8 C-7 6 -7 6 -5.57 4.46 C-4.95 3.91 -4.33 3.37 -3.69 2.81 C-3.07 2.26 -2.46 1.71 -1.82 1.14 C-1.22 0.77 -0.62 0.39 0 0 Z " fill="#2B2E8F" transform="translate(46,32)"/>
<path d="M0 0 C4.62 0 9.24 0 14 0 C13.67 1.32 13.34 2.64 13 4 C14.65 4 16.3 4 18 4 C18.33 3.01 18.66 2.02 19 1 C19 1.99 19 2.98 19 4 C19.99 4.33 20.98 4.66 22 5 C21.01 5 20.02 5 19 5 C18.67 5.66 18.34 6.32 18 7 C18 6.34 18 5.68 18 5 C17.34 5 16.68 5 16 5 C15.67 5.66 15.34 6.32 15 7 C15 6.34 15 5.68 15 5 C11.04 5 7.08 5 3 5 C3 4.01 3 3.02 3 2 C2.01 2 1.02 2 0 2 C0 1.34 0 0.68 0 0 Z " fill="#FEFEFE" transform="translate(39,112)"/>
<path d="M0 0 C0.62 1.88 0.62 1.88 1 4 C0.34 4.66 -0.32 5.32 -1 6 C-0.01 6.66 0.98 7.32 2 8 C2 9.32 2 10.64 2 12 C1.15 11.69 0.31 11.38 -0.56 11.06 C-4.05 9.98 -7.38 9.43 -11 9 C-11 7.68 -11 6.36 -11 5 C-9.93 4.73 -8.85 4.46 -7.75 4.19 C-4.43 3.14 -2.56 2.25 0 0 Z " fill="#292C8E" transform="translate(185,89)"/>
<path d="M0 0 C3.3 0 6.6 0 10 0 C10 2.31 10 4.62 10 7 C6.79 8.61 3.56 8.06 0 8 C0 5.36 0 2.72 0 0 Z " fill="#6668AE" transform="translate(44,120)"/>
<path d="M0 0 C0.99 0 1.98 0 3 0 C3 1.98 3 3.96 3 6 C3.66 6 4.32 6 5 6 C5 5.34 5 4.68 5 4 C5.66 4 6.32 4 7 4 C5.38 10.03 3.83 13.95 -1 18 C-1.66 17.67 -2.32 17.34 -3 17 C-2.01 15.68 -1.02 14.36 0 13 C-1.32 12.67 -2.64 12.34 -4 12 C-3.34 11.69 -2.68 11.38 -2 11.06 C0.44 8.54 0.27 7.72 0.25 4.31 C0.19 2.87 0.11 1.44 0 0 Z " fill="#41449B" transform="translate(114,172)"/>
<path d="M0 0 C2.97 0 5.94 0 9 0 C9.05 1.58 9.09 3.17 9.12 4.75 C9.15 5.63 9.17 6.51 9.2 7.42 C8.99 10.11 8.37 11.7 7 14 C6.34 14 5.68 14 5 14 C4.34 10.7 3.68 7.4 3 4 C2.01 3.67 1.02 3.34 0 3 C0 2.01 0 1.02 0 0 Z " fill="#9597C7" transform="translate(129,113)"/>
<path d="M0 0 C0 0.99 0 1.98 0 3 C-8.58 3 -17.16 3 -26 3 C-26 2.67 -26 2.34 -26 2 C-24.02 1.67 -22.04 1.34 -20 1 C-20 0.67 -20 0.34 -20 0 C-17.04 -0.19 -14.08 -0.38 -11.12 -0.56 C-10.28 -0.62 -9.44 -0.67 -8.57 -0.73 C-7.77 -0.78 -6.96 -0.83 -6.13 -0.88 C-5.39 -0.93 -4.65 -0.97 -3.88 -1.02 C-2 -1 -2 -1 0 0 Z " fill="#9C9DCB" transform="translate(115,75)"/>
<path d="M0 0 C6.6 0 13.2 0 20 0 C20 0.99 20 1.98 20 3 C13.4 3 6.8 3 0 3 C0 2.01 0 1.02 0 0 Z " fill="#7C7EBA" transform="translate(86,93)"/>
<path d="M0 0 C1.32 0 2.64 0 4 0 C4 6.27 4 12.54 4 19 C2.68 19 1.36 19 0 19 C0 15.7 0 12.4 0 9 C0.66 9 1.32 9 2 9 C2 8.01 2 7.02 2 6 C1.34 5.67 0.68 5.34 0 5 C0.66 5 1.32 5 2 5 C2 4.01 2 3.02 2 2 C1.34 2 0.68 2 0 2 C0 1.34 0 0.68 0 0 Z " fill="#AFB0D5" transform="translate(119,113)"/>
<path d="M0 0 C2.97 0.5 2.97 0.5 6 1 C6 3 6 5 6 7 C4.35 7 2.7 7 1 7 C1 10.3 1 13.6 1 17 C0.34 17 -0.32 17 -1 17 C-1 15.68 -1 14.36 -1 13 C-1.66 12.67 -2.32 12.34 -3 12 C-2.34 12 -1.68 12 -1 12 C-1 11.01 -1 10.02 -1 9 C-1.66 9 -2.32 9 -3 9 C-3 7.02 -3 5.04 -3 3 C-2.34 3 -1.68 3 -1 3 C-0.67 2.01 -0.34 1.02 0 0 Z " fill="#6264AC" transform="translate(82,116)"/>
<path d="M0 0 C0.33 0 0.66 0 1 0 C1.1 0.83 1.2 1.65 1.3 2.5 C2.51 11.89 4.56 20.86 7 30 C6.34 30.33 5.68 30.66 5 31 C-1.62 10.21 -1.62 10.21 0 0 Z " fill="#5659A6" transform="translate(6,107)"/>
<path d="M0 0 C1.32 0.33 2.64 0.66 4 1 C3.52 2.63 3.04 4.25 2.56 5.88 C2.3 6.78 2.03 7.68 1.75 8.62 C1 11 1 11 0 13 C-1.32 13 -2.64 13 -4 13 C-3.28 8.39 -1.69 4.33 0 0 Z " fill="#343794" transform="translate(125,17)"/>
<path d="M0 0 C2 2 2 2 2 6 C1.01 6 0.02 6 -1 6 C-1 6.66 -1 7.32 -1 8 C0.65 8 2.3 8 4 8 C4 7.01 4 6.02 4 5 C6.64 5 9.28 5 12 5 C12.33 6.32 12.66 7.64 13 9 C8.05 9 3.1 9 -2 9 C-2 7.68 -2 6.36 -2 5 C-1.01 5 -0.02 5 1 5 C0.67 3.35 0.34 1.7 0 0 Z " fill="#8E90C4" transform="translate(39,124)"/>
<path d="M0 0 C-0.33 2.31 -0.66 4.62 -1 7 C-4.63 7 -8.26 7 -12 7 C-12 6.67 -12 6.34 -12 6 C-9.36 6 -6.72 6 -4 6 C-4 5.01 -4 4.02 -4 3 C-6.64 3 -9.28 3 -12 3 C-12.33 2.34 -12.66 1.68 -13 1 C-11.58 0.83 -10.17 0.66 -8.75 0.5 C-7.57 0.36 -7.57 0.36 -6.36 0.22 C-4 0 -4 0 0 0 Z " fill="#C5C5E0" transform="translate(160,118)"/>
<path d="M0 0 C4.29 0 8.58 0 13 0 C13 0.66 13 1.32 13 2 C12.34 2 11.68 2 11 2 C11 2.99 11 3.98 11 5 C7.37 4.67 3.74 4.34 0 4 C0 2.68 0 1.36 0 0 Z " fill="#FDFDFE" transform="translate(148,112)"/>
<path d="M0 0 C0.33 0.99 0.66 1.98 1 3 C-0.62 3.84 -2.25 4.67 -3.88 5.5 C-5.23 6.2 -5.23 6.2 -6.62 6.91 C-9 8 -9 8 -11 8 C-11.33 6.68 -11.66 5.36 -12 4 C-10.76 3.32 -9.5 2.66 -8.25 2 C-7.55 1.63 -6.86 1.26 -6.14 0.88 C-4 0 -4 0 0 0 Z " fill="#2E3191" transform="translate(180,66)"/>
<path d="M0 0 C4.29 0 8.58 0 13 0 C13 0.66 13 1.32 13 2 C12.01 2 11.02 2 10 2 C10 2.99 10 3.98 10 5 C10.99 5.33 11.98 5.66 13 6 C10.36 6 7.72 6 5 6 C5 4.35 5 2.7 5 1 C3.35 1 1.7 1 0 1 C0 0.67 0 0.34 0 0 Z " fill="#A9AAD2" transform="translate(63,111)"/>
<path d="M0 0 C2.64 0 5.28 0 8 0 C8 1.98 8 3.96 8 6 C5.36 6 2.72 6 0 6 C0 4.02 0 2.04 0 0 Z " fill="#6D6FB2" transform="translate(89,117)"/>
<path d="M0 0 C3.3 0 6.6 0 10 0 C10 1.32 10 2.64 10 4 C7.03 4 4.06 4 1 4 C0.67 2.68 0.34 1.36 0 0 Z " fill="#9A9BCA" transform="translate(51,129)"/>
<path d="M0 0 C1.32 0.33 2.64 0.66 4 1 C3.34 1 2.68 1 2 1 C2 2.98 2 4.96 2 7 C1.01 7.5 1.01 7.5 0 8 C0 7.34 0 6.68 0 6 C-1.65 6 -3.3 6 -5 6 C-5 4.68 -5 3.36 -5 2 C-3.35 2 -1.7 2 0 2 C0 1.34 0 0.68 0 0 Z " fill="#FBFBFD" transform="translate(29,116)"/>
<path d="M0 0 C1.32 0 2.64 0 4 0 C4 2.97 4 5.94 4 9 C2.68 9 1.36 9 0 9 C0 6.03 0 3.06 0 0 Z " fill="#24278B" transform="translate(165,118)"/>
<path d="M0 0 C1.32 0 2.64 0 4 0 C4 2.97 4 5.94 4 9 C2.68 9 1.36 9 0 9 C0 6.03 0 3.06 0 0 Z " fill="#24278B" transform="translate(31,118)"/>
<path d="M0 0 C1.98 0 3.96 0 6 0 C6 0.66 6 1.32 6 2 C8.31 2 10.62 2 13 2 C13 2.66 13 3.32 13 4 C8.71 4 4.42 4 0 4 C0 2.68 0 1.36 0 0 Z " fill="#CBCCE4" transform="translate(63,129)"/>
<path d="M0 0 C1.21 0.03 1.21 0.03 2.44 0.06 C2.44 2.37 2.44 4.68 2.44 7.06 C0.77 7.11 -0.9 7.1 -2.56 7.06 C-3.56 6.06 -3.56 6.06 -3.69 3.56 C-3.52 0.16 -3.42 0.08 0 0 Z " fill="#6063AB" transform="translate(26.5625,121.9375)"/>
<path d="M0 0 C1.65 0 3.3 0 5 0 C5 0.66 5 1.32 5 2 C4.34 2 3.68 2 3 2 C3 4.64 3 7.28 3 10 C2.01 10 1.02 10 0 10 C0 6.7 0 3.4 0 0 Z " fill="#7476B6" transform="translate(68,117)"/>
<path d="M0 0 C1.32 0 2.64 0 4 0 C4 0.66 4 1.32 4 2 C5.65 2 7.3 2 9 2 C9 3.32 9 4.64 9 6 C7.35 6 5.7 6 4 6 C3.67 7.32 3.34 8.64 3 10 C2.8 7.98 2.61 5.96 2.41 3.95 C2.14 1.77 2.14 1.77 0 0 Z " fill="#FEFEFE" transform="translate(167,116)"/>
<path d="M0 0 C2.06 0.44 2.06 0.44 4 1 C3.01 2.48 3.01 2.48 2 4 C3.32 3.67 4.64 3.34 6 3 C5.67 4.32 5.34 5.64 5 7 C3.35 6.67 1.7 6.34 0 6 C-0.38 4.34 -0.71 2.68 -1 1 C-0.67 0.67 -0.34 0.34 0 0 Z " fill="#DEDEED" transform="translate(34,48)"/>
<path d="M0 0 C1.65 0 3.3 0 5 0 C5 1.98 5 3.96 5 6 C3.35 6 1.7 6 0 6 C0 4.02 0 2.04 0 0 Z " fill="#6366AD" transform="translate(107,117)"/>
<path d="M0 0 C1.32 0 2.64 0 4 0 C4 1.98 4 3.96 4 6 C2.02 6 0.04 6 -2 6 C-2 5.01 -2 4.02 -2 3 C-1.34 3 -0.68 3 0 3 C0 2.01 0 1.02 0 0 Z " fill="#9C9DCB" transform="translate(63,113)"/>
<path d="M0 0 C2.64 0 5.28 0 8 0 C7.01 0.33 6.02 0.66 5 1 C5 1.99 5 2.98 5 4 C5.99 4 6.98 4 8 4 C8 4.99 8 5.98 8 7 C6.35 7 4.7 7 3 7 C3 6.34 3 5.68 3 5 C2.01 4.67 1.02 4.34 0 4 C1.32 4 2.64 4 4 4 C4 3.01 4 2.02 4 1 C2.68 0.67 1.36 0.34 0 0 Z " fill="#B2B3D7" transform="translate(124,112)"/>
<path d="M0 0 C0.66 0.33 1.32 0.66 2 1 C-1.63 4.63 -5.26 8.26 -9 12 C-9.66 11.67 -10.32 11.34 -11 11 C-7.62 6.86 -4.33 3.19 0 0 Z " fill="#78B9D5" transform="translate(61,48)"/>
<path d="M0 0 C1.32 0 2.64 0 4 0 C4 2.31 4 4.62 4 7 C2.68 7 1.36 7 0 7 C0 4.69 0 2.38 0 0 Z " fill="#9092C4" transform="translate(63,120)"/>
<path d="M0 0 C0.99 0 1.98 0 3 0 C3 1.98 3 3.96 3 6 C3.66 6 4.32 6 5 6 C5 5.34 5 4.68 5 4 C5.66 4 6.32 4 7 4 C6.34 5.32 5.68 6.64 5 8 C4.01 8 3.02 8 2 8 C1.34 5.36 0.68 2.72 0 0 Z " fill="#282A8D" transform="translate(114,172)"/>
<path d="M0 0 C1.65 0 3.3 0 5 0 C4.01 0.33 3.02 0.66 2 1 C2 1.99 2 2.98 2 4 C2.99 4 3.98 4 5 4 C5 4.66 5 5.32 5 6 C4.01 6 3.02 6 2 6 C2 6.66 2 7.32 2 8 C1.34 8 0.68 8 0 8 C0 5.36 0 2.72 0 0 Z " fill="#BEBFDD" transform="translate(71,119)"/>
<path d="M0 0 C1.95 2.93 2.55 4.68 3.25 8.06 C3.44 8.94 3.63 9.82 3.83 10.72 C3.88 11.47 3.94 12.23 4 13 C3.34 13.66 2.68 14.32 2 15 C0.53 9.77 -0.23 5.42 0 0 Z " fill="#5456A5" transform="translate(190,68)"/>
<path d="M0 0 C1.32 0 2.64 0 4 0 C4 1.98 4 3.96 4 6 C2.68 6 1.36 6 0 6 C0 4.02 0 2.04 0 0 Z " fill="#1D2088" transform="translate(98,126)"/>
<path d="M0 0 C0.33 0.99 0.66 1.98 1 3 C1.99 3.33 2.98 3.66 4 4 C3.01 4 2.02 4 1 4 C0.67 4.66 0.34 5.32 0 6 C0 5.34 0 4.68 0 4 C-0.66 4 -1.32 4 -2 4 C-2.33 4.66 -2.66 5.32 -3 6 C-3 5.34 -3 4.68 -3 4 C-6.3 4 -9.6 4 -13 4 C-13 3.67 -13 3.34 -13 3 C-8.71 3 -4.42 3 0 3 C0 2.01 0 1.02 0 0 Z " fill="#DEDFEE" transform="translate(57,113)"/>
<path d="M0 0 C1.98 0 3.96 0 6 0 C6 1.98 6 3.96 6 6 C5.34 6 4.68 6 4 6 C3.67 5.34 3.34 4.68 3 4 C2.01 3.67 1.02 3.34 0 3 C0 2.01 0 1.02 0 0 Z " fill="#7C7EBA" transform="translate(129,113)"/>
<path d="M0 0 C1.32 0.66 2.64 1.32 4 2 C-2.44 2.5 -2.44 2.5 -9 3 C-9 2.34 -9 1.68 -9 1 C-5.98 -0.51 -3.34 -0.17 0 0 Z " fill="#CFCFE5" transform="translate(95,75)"/>
<path d="M0 0 C0.99 0.33 1.98 0.66 3 1 C0.69 3.31 -1.62 5.62 -4 8 C-4.66 7.34 -5.32 6.68 -6 6 C-4.02 4.02 -2.04 2.04 0 0 Z " fill="#5557A5" transform="translate(169,165)"/>
<path d="M0 0 C1.32 0.33 2.64 0.66 4 1 C3.67 2.32 3.34 3.64 3 5 C1.35 5 -0.3 5 -2 5 C-1.34 3.35 -0.68 1.7 0 0 Z " fill="#B8B9D9" transform="translate(134,128)"/>
<path d="M0 0 C0.33 0 0.66 0 1 0 C1 3.63 1 7.26 1 11 C0.01 11.5 0.01 11.5 -1 12 C-1 11.01 -1 10.02 -1 9 C-2.65 9 -4.3 9 -6 9 C-6 8.67 -6 8.34 -6 8 C-4.35 8 -2.7 8 -1 8 C-0.67 5.36 -0.34 2.72 0 0 Z " fill="#595BA7" transform="translate(177,121)"/>
<path d="M0 0 C1.32 0 2.64 0 4 0 C3.67 1.32 3.34 2.64 3 4 C1.02 4 -0.96 4 -3 4 C-1.75 2 -1.75 2 0 0 Z " fill="#ABACD2" transform="translate(76,178)"/>
<path d="M0 0 C0.99 1.32 1.98 2.64 3 4 C0 6 0 6 -2.19 5.62 C-2.79 5.42 -3.38 5.21 -4 5 C-3.34 4.01 -2.68 3.02 -2 2 C-1.34 2 -0.68 2 0 2 C0 1.34 0 0.68 0 0 Z " fill="#43469C" transform="translate(54,153)"/>
<path d="M0 0 C2.31 0 4.62 0 7 0 C7 0.99 7 1.98 7 3 C4.69 3 2.38 3 0 3 C0 2.01 0 1.02 0 0 Z " fill="#1E2189" transform="translate(149,129)"/>
<path d="M0 0 C2.31 0 4.62 0 7 0 C7 0.99 7 1.98 7 3 C4.69 3 2.38 3 0 3 C0 2.01 0 1.02 0 0 Z " fill="#22258B" transform="translate(44,129)"/>
<path d="M0 0 C0.99 0 1.98 0 3 0 C3 2.31 3 4.62 3 7 C2.01 7 1.02 7 0 7 C0 4.69 0 2.38 0 0 Z " fill="#6567AD" transform="translate(129,120)"/>
<path d="M0 0 C2.31 0 4.62 0 7 0 C7 0.99 7 1.98 7 3 C4.69 3 2.38 3 0 3 C0 2.01 0 1.02 0 0 Z " fill="#7C7DBA" transform="translate(107,93)"/>
<path d="M0 0 C1.98 0 3.96 0 6 0 C6 0.99 6 1.98 6 3 C2.25 4.12 2.25 4.12 0 3 C0 2.01 0 1.02 0 0 Z " fill="#7C7EBA" transform="translate(139,129)"/>
<path d="M0 0 C1.65 0 3.3 0 5 0 C5 0.66 5 1.32 5 2 C1.91 3.76 0.77 4 -3 4 C-3 3.34 -3 2.68 -3 2 C-2.01 2 -1.02 2 0 2 C0 1.34 0 0.68 0 0 Z " fill="#989AC9" transform="translate(127,129)"/>
<path d="M0 0 C0.33 0 0.66 0 1 0 C1.25 5.62 1.25 5.62 -1 9 C-1.66 8.67 -2.32 8.34 -3 8 C-2.01 5.36 -1.02 2.72 0 0 Z " fill="#E3E3F0" transform="translate(154,163)"/>
<path d="M0 0 C1.98 0 3.96 0 6 0 C6.33 0.99 6.66 1.98 7 3 C5.35 3.33 3.7 3.66 2 4 C2 3.34 2 2.68 2 2 C1.34 1.34 0.68 0.68 0 0 Z " fill="#A8A9D1" transform="translate(36,162)"/>
<path d="M0 0 C1.32 0 2.64 0 4 0 C4.33 1.32 4.66 2.64 5 4 C3.35 4 1.7 4 0 4 C0 2.68 0 1.36 0 0 Z " fill="#AAAAD2" transform="translate(63,129)"/>
</svg>
